{
    "accessors" : [
        {
            "bufferView" : 0, 
            "componentType" : 5121, 
            "count" : 309, 
            "max" : [
                104
            ], 
            "min" : [
                0
            ], 
            "type" : "SCALAR"
        }, 
        {
            "bufferView" : 1, 
            "componentType" : 5126, 
            "count" : 105, 
            "max" : [
                21.41062355041504, 
                -3.5762786865234375e-06, 
                4.413661956787109
            ], 
            "min" : [
                -5.589376926422119, 
                -3.5762786865234375e-06, 
                -4.586337566375732
            ], 
            "type" : "VEC3"
        }, 
        {
            "bufferView" : 2, 
            "componentType" : 5126, 
            "count" : 105, 
            "max" : [
                -4.759115600520489e-14, 
                1.0, 
                -0.0
            ], 
            "min" : [
                -4.759115600520489e-14, 
                1.0, 
                -0.0
            ], 
            "type" : "VEC3"
        }, 
        {
            "bufferView" : 3, 
            "componentType" : 5123, 
            "count" : 738, 
            "max" : [
                415
            ], 
            "min" : [
                0
            ], 
            "type" : "SCALAR"
        }, 
        {
            "bufferView" : 4, 
            "componentType" : 5126, 
            "count" : 416, 
            "max" : [
                21.41062355041504, 
                13.999996185302734, 
                17.91366195678711
            ], 
            "min" : [
                -22.08937644958496, 
                -3.5762786865234375e-06, 
                -16.58633804321289
            ], 
            "type" : "VEC3"
        }, 
        {
            "bufferView" : 5, 
            "componentType" : 5126, 
            "count" : 416, 
            "max" : [
                1.0, 
                1.0, 
                1.0
            ], 
            "min" : [
                -1.0, 
                -1.0, 
                -1.0
            ], 
            "type" : "VEC3"
        }, 
        {
            "bufferView" : 6, 
            "componentType" : 5121, 
            "count" : 132, 
            "max" : [
                47
            ], 
            "min" : [
                0
            ], 
            "type" : "SCALAR"
        }, 
        {
            "bufferView" : 7, 
            "componentType" : 5126, 
            "count" : 48, 
            "max" : [
                11.410623550415039, 
                -3.5762786865234375e-06, 
                17.91366195678711
            ], 
            "min" : [
                -22.08937644958496, 
                -3.5762786865234375e-06, 
                -16.08633804321289
            ], 
            "type" : "VEC3"
        }, 
        {
            "bufferView" : 8, 
            "componentType" : 5126, 
            "count" : 48, 
            "max" : [
                1.308676067903261e-14, 
                1.0, 
                -0.0
            ], 
            "min" : [
                7.43962928913787e-15, 
                1.0, 
                -0.0
            ], 
            "type" : "VEC3"
        }, 
        {
            "bufferView" : 9, 
            "componentType" : 5121, 
            "count" : 24, 
            "max" : [
                9
            ], 
            "min" : [
                0
            ], 
            "type" : "SCALAR"
        }, 
        {
            "bufferView" : 10, 
            "componentType" : 5126, 
            "count" : 10, 
            "max" : [
                21.41062355041504, 
                -3.5762786865234375e-06, 
                -6.586337089538574
            ], 
            "min" : [
                11.410623550415039, 
                -3.5762786865234375e-06, 
                -16.58633804321289
            ], 
            "type" : "VEC3"
        }, 
        {
            "bufferView" : 11, 
            "componentType" : 5126, 
            "count" : 10, 
            "max" : [
                0.0, 
                1.0, 
                -0.0
            ], 
            "min" : [
                0.0, 
                1.0, 
                -0.0
            ], 
            "type" : "VEC3"
        }, 
        {
            "bufferView" : 12, 
            "componentType" : 5121, 
            "count" : 387, 
            "max" : [
                166
            ], 
            "min" : [
                0
            ], 
            "type" : "SCALAR"
        }, 
        {
            "bufferView" : 13, 
            "componentType" : 5126, 
            "count" : 167, 
            "max" : [
                21.41062355041504, 
                12.499996185302734, 
                4.413661956787109
            ], 
            "min" : [
                -22.08937644958496, 
                -3.5762786865234375e-06, 
                -16.58633804321289
            ], 
            "type" : "VEC3"
        }, 
        {
            "bufferView" : 14, 
            "componentType" : 5126, 
            "count" : 167, 
            "max" : [
                0.9951848387718201, 
                8.315952015891526e-08, 
                1.0
            ], 
            "min" : [
                -1.759952539259757e-08, 
                -1.0, 
                -0.9999999403953552
            ], 
            "type" : "VEC3"
        }, 
        {
            "bufferView" : 15, 
            "componentType" : 5123, 
            "count" : 3528, 
            "max" : [
                2725
            ], 
            "min" : [
                0
            ], 
            "type" : "SCALAR"
        }, 
        {
            "bufferView" : 16, 
            "componentType" : 5126, 
            "count" : 2726, 
            "max" : [
                1.850001335144043, 
                3.999999761581421, 
                7.849999904632568
            ], 
            "min" : [
                -8.04999828338623, 
                0.0, 
                -0.7500000596046448
            ], 
            "type" : "VEC3"
        }, 
        {
            "bufferView" : 17, 
            "componentType" : 5126, 
            "count" : 2726, 
            "max" : [
                0.9659262299537659, 
                0.9182142019271851, 
                0.9659260511398315
            ], 
            "min" : [
                -0.9659262299537659, 
                -1.0, 
                -0.9659259915351868
            ], 
            "type" : "VEC3"
        }, 
        {
            "bufferView" : 18, 
            "componentType" : 5123, 
            "count" : 1680, 
            "max" : [
                1119
            ], 
            "min" : [
                0
            ], 
            "type" : "SCALAR"
        }, 
        {
            "bufferView" : 19, 
            "componentType" : 5126, 
            "count" : 1120, 
            "max" : [
                5.2853169441223145, 
                6.0, 
                3.299999952316284
            ], 
            "min" : [
                -7.2853169441223145, 
                0.0, 
                -3.299999952316284
            ], 
            "type" : "VEC3"
        }, 
        {
            "bufferView" : 20, 
            "componentType" : 5126, 
            "count" : 1120, 
            "max" : [
                1.0, 
                0.0, 
                0.9510563611984253
            ], 
            "min" : [
                -1.0, 
                0.0, 
                -0.9510567784309387
            ], 
            "type" : "VEC3"
        }, 
        {
            "bufferView" : 21, 
            "componentType" : 5121, 
            "count" : 378, 
            "max" : [
                227
            ], 
            "min" : [
                0
            ], 
            "type" : "SCALAR"
        }, 
        {
            "bufferView" : 22, 
            "componentType" : 5126, 
            "count" : 228, 
            "max" : [
                1.0, 
                0.2517669200897217, 
                3.5461089611053467
            ], 
            "min" : [
                -2.8256309032440186, 
                -1.0, 
                -4.453890800476074
            ], 
            "type" : "VEC3"
        }, 
        {
            "bufferView" : 23, 
            "componentType" : 5126, 
            "count" : 228, 
            "max" : [
                1.0, 
                1.0, 
                0.9999999403953552
            ], 
            "min" : [
                -1.0, 
                -0.9999999403953552, 
                -0.9999999403953552
            ], 
            "type" : "VEC3"
        }
    ], 
    "asset" : {
        "generator" : "Khronos Blender glTF 2.0 exporter", 
        "version" : "2.0"
    }, 
    "bufferViews" : [
        {
            "buffer" : 0, 
            "byteLength" : 309, 
            "byteOffset" : 0, 
            "target" : 34963
        }, 
        {
            "buffer" : 0, 
            "byteLength" : 1260, 
            "byteOffset" : 312, 
            "target" : 34962
        }, 
        {
            "buffer" : 0, 
            "byteLength" : 1260, 
            "byteOffset" : 1572, 
            "target" : 34962
        }, 
        {
            "buffer" : 0, 
            "byteLength" : 1476, 
            "byteOffset" : 2832, 
            "target" : 34963
        }, 
        {
            "buffer" : 0, 
            "byteLength" : 4992, 
            "byteOffset" : 4308, 
            "target" : 34962
        }, 
        {
            "buffer" : 0, 
            "byteLength" : 4992, 
            "byteOffset" : 9300, 
            "target" : 34962
        }, 
        {
            "buffer" : 0, 
            "byteLength" : 132, 
            "byteOffset" : 14292, 
            "target" : 34963
        }, 
        {
            "buffer" : 0, 
            "byteLength" : 576, 
            "byteOffset" : 14424, 
            "target" : 34962
        }, 
        {
            "buffer" : 0, 
            "byteLength" : 576, 
            "byteOffset" : 15000, 
            "target" : 34962
        }, 
        {
            "buffer" : 0, 
            "byteLength" : 24, 
            "byteOffset" : 15576, 
            "target" : 34963
        }, 
        {
            "buffer" : 0, 
            "byteLength" : 120, 
            "byteOffset" : 15600, 
            "target" : 34962
        }, 
        {
            "buffer" : 0, 
            "byteLength" : 120, 
            "byteOffset" : 15720, 
            "target" : 34962
        }, 
        {
            "buffer" : 0, 
            "byteLength" : 387, 
            "byteOffset" : 15840, 
            "target" : 34963
        }, 
        {
            "buffer" : 0, 
            "byteLength" : 2004, 
            "byteOffset" : 16228, 
            "target" : 34962
        }, 
        {
            "buffer" : 0, 
            "byteLength" : 2004, 
            "byteOffset" : 18232, 
            "target" : 34962
        }, 
        {
            "buffer" : 0, 
            "byteLength" : 7056, 
            "byteOffset" : 20236, 
            "target" : 34963
        }, 
        {
            "buffer" : 0, 
            "byteLength" : 32712, 
            "byteOffset" : 27292, 
            "target" : 34962
        }, 
        {
            "buffer" : 0, 
            "byteLength" : 32712, 
            "byteOffset" : 60004, 
            "target" : 34962
        }, 
        {
            "buffer" : 0, 
            "byteLength" : 3360, 
            "byteOffset" : 92716, 
            "target" : 34963
        }, 
        {
            "buffer" : 0, 
            "byteLength" : 13440, 
            "byteOffset" : 96076, 
            "target" : 34962
        }, 
        {
            "buffer" : 0, 
            "byteLength" : 13440, 
            "byteOffset" : 109516, 
            "target" : 34962
        }, 
        {
            "buffer" : 0, 
            "byteLength" : 378, 
            "byteOffset" : 122956, 
            "target" : 34963
        }, 
        {
            "buffer" : 0, 
            "byteLength" : 2736, 
            "byteOffset" : 123336, 
            "target" : 34962
        }, 
        {
            "buffer" : 0, 
            "byteLength" : 2736, 
            "byteOffset" : 126072, 
            "target" : 34962
        }
    ], 
    "buffers" : [
        {
            "byteLength" : 128808, 
            "uri" : "Santuario.bin"
        }
    ], 
    "materials" : [
        {
            "name" : "Blanco", 
            "pbrMetallicRoughness" : {
                "baseColorFactor" : [
                    0.6400000190734865, 
                    0.6400000190734865, 
                    0.6400000190734865, 
                    1.0
                ], 
                "metallicFactor" : 0.0
            }
        }, 
        {
            "name" : "Brown", 
            "pbrMetallicRoughness" : {
                "baseColorFactor" : [
                    0.05040802434694802, 
                    0.020992976739897973, 
                    0.023645475859127574, 
                    1.0
                ], 
                "metallicFactor" : 0.0
            }
        }, 
        {
            "name" : "Concrete .001", 
            "pbrMetallicRoughness" : {
                "baseColorFactor" : [
                    0.0875693632300103, 
                    0.13715291227628157, 
                    0.16690951834484213, 
                    1.0
                ], 
                "metallicFactor" : 0.0
            }
        }, 
        {
            "name" : "Concreto", 
            "pbrMetallicRoughness" : {
                "baseColorFactor" : [
                    0.0875693632300103, 
                    0.13715291227628157, 
                    0.16690951834484213, 
                    1.0
                ], 
                "metallicFactor" : 0.0
            }
        }, 
        {
            "name" : "DarkConcrete", 
            "pbrMetallicRoughness" : {
                "baseColorFactor" : [
                    0.04624435374504854, 
                    0.04624435374504854, 
                    0.04624435374504854, 
                    1.0
                ], 
                "metallicFactor" : 0.0
            }
        }, 
        {
            "name" : "Concrete ", 
            "pbrMetallicRoughness" : {
                "baseColorFactor" : [
                    0.0875693632300103, 
                    0.13715291227628157, 
                    0.16690951834484213, 
                    1.0
                ], 
                "metallicFactor" : 0.0
            }
        }, 
        {
            "name" : "Grass", 
            "pbrMetallicRoughness" : {
                "baseColorFactor" : [
                    0.31325798501458735, 
                    0.43657961542277945, 
                    0.09771104004548548, 
                    1.0
                ], 
                "metallicFactor" : 0.0
            }
        }, 
        {
            "name" : "LightConcrete.001", 
            "pbrMetallicRoughness" : {
                "baseColorFactor" : [
                    0.3928166686418155, 
                    0.5379546245627793, 
                    0.5903284160841764, 
                    1.0
                ], 
                "metallicFactor" : 0.0
            }
        }, 
        {
            "name" : "Material", 
            "pbrMetallicRoughness" : {
                "baseColorFactor" : [
                    0.10195017012879504, 
                    0.3742271002266868, 
                    0.33003411784818937, 
                    1.0
                ], 
                "metallicFactor" : 0.0
            }
        }
    ], 
    "meshes" : [
        {
            "name" : "Plane", 
            "primitives" : [
                {
                    "attributes" : {
                        "NORMAL" : 2, 
                        "POSITION" : 1
                    }, 
                    "indices" : 0, 
                    "material" : 6
                }, 
                {
                    "attributes" : {
                        "NORMAL" : 5, 
                        "POSITION" : 4
                    }, 
                    "indices" : 3, 
                    "material" : 3
                }, 
                {
                    "attributes" : {
                        "NORMAL" : 8, 
                        "POSITION" : 7
                    }, 
                    "indices" : 6, 
                    "material" : 4
                }, 
                {
                    "attributes" : {
                        "NORMAL" : 11, 
                        "POSITION" : 10
                    }, 
                    "indices" : 9, 
                    "material" : 1
                }, 
                {
                    "attributes" : {
                        "NORMAL" : 14, 
                        "POSITION" : 13
                    }, 
                    "indices" : 12, 
                    "material" : 7
                }
            ]
        }, 
        {
            "name" : "Circle.002", 
            "primitives" : [
                {
                    "attributes" : {
                        "NORMAL" : 17, 
                        "POSITION" : 16
                    }, 
                    "indices" : 15, 
                    "material" : 5
                }
            ]
        }, 
        {
            "name" : "Circle.009", 
            "primitives" : [
                {
                    "attributes" : {
                        "NORMAL" : 20, 
                        "POSITION" : 19
                    }, 
                    "indices" : 18, 
                    "material" : 2
                }
            ]
        }, 
        {
            "name" : "Cube", 
            "primitives" : [
                {
                    "attributes" : {
                        "NORMAL" : 23, 
                        "POSITION" : 22
                    }, 
                    "indices" : 21, 
                    "material" : 8
                }
            ]
        }
    ], 
    "nodes" : [
        {
            "mesh" : 2, 
            "name" : "Bosque Columnas", 
            "translation" : [
                -13.0, 
                0.0, 
                -12.0
            ]
        }, 
        {
            "mesh" : 1, 
            "name" : "Columnas Vano", 
            "translation" : [
                -10.399998664855957, 
                0.0, 
                7.09999942779541
            ]
        }, 
        {
            "mesh" : 3, 
            "name" : "Cube", 
            "translation" : [
                0.0, 
                1.0, 
                -0.0
            ]
        }, 
        {
            "mesh" : 0, 
            "name" : "Muros ", 
            "translation" : [
                0.5887953639030457, 
                0.0, 
                -0.413152277469635
            ]
        }
    ], 
    "scene" : 0, 
    "scenes" : [
        {
            "name" : "Scene", 
            "nodes" : [
                2, 
                0, 
                1, 
                3
            ]
        }
    ]
}
