{
    "accessors" : [
        {
            "bufferView" : 0, 
            "componentType" : 5123, 
            "count" : 2157, 
            "max" : [
                2112
            ], 
            "min" : [
                0
            ], 
            "type" : "SCALAR"
        }, 
        {
            "bufferView" : 1, 
            "componentType" : 5126, 
            "count" : 2113, 
            "max" : [
                0.9978439807891846, 
                4.436692237854004, 
                0.9736407995223999
            ], 
            "min" : [
                -0.6233518719673157, 
                -0.013866567052900791, 
                -1.5525399446487427
            ], 
            "type" : "VEC3"
        }, 
        {
            "bufferView" : 2, 
            "componentType" : 5126, 
            "count" : 2113, 
            "max" : [
                0.9995027780532837, 
                0.9996429085731506, 
                0.9983781576156616
            ], 
            "min" : [
                -0.9999112486839294, 
                -0.994541347026825, 
                -0.9999240040779114
            ], 
            "type" : "VEC3"
        }, 
        {
            "bufferView" : 3, 
            "componentType" : 5121, 
            "count" : 231, 
            "max" : [
                157
            ], 
            "min" : [
                0
            ], 
            "type" : "SCALAR"
        }, 
        {
            "bufferView" : 4, 
            "componentType" : 5126, 
            "count" : 158, 
            "max" : [
                2.0, 
                0.11051802337169647, 
                1.95045006275177
            ], 
            "min" : [
                -2.0, 
                -0.0261525996029377, 
                -2.0
            ], 
            "type" : "VEC3"
        }, 
        {
            "bufferView" : 5, 
            "componentType" : 5126, 
            "count" : 158, 
            "max" : [
                0.8854306936264038, 
                1.0, 
                0.9096955060958862
            ], 
            "min" : [
                -0.9108447432518005, 
                -0.03386499360203743, 
                -0.9996331334114075
            ], 
            "type" : "VEC3"
        }
    ], 
    "asset" : {
        "generator" : "Khronos Blender glTF 2.0 exporter", 
        "version" : "2.0"
    }, 
    "bufferViews" : [
        {
            "buffer" : 0, 
            "byteLength" : 4314, 
            "byteOffset" : 0, 
            "target" : 34963
        }, 
        {
            "buffer" : 0, 
            "byteLength" : 25356, 
            "byteOffset" : 4316, 
            "target" : 34962
        }, 
        {
            "buffer" : 0, 
            "byteLength" : 25356, 
            "byteOffset" : 29672, 
            "target" : 34962
        }, 
        {
            "buffer" : 0, 
            "byteLength" : 231, 
            "byteOffset" : 55028, 
            "target" : 34963
        }, 
        {
            "buffer" : 0, 
            "byteLength" : 1896, 
            "byteOffset" : 55260, 
            "target" : 34962
        }, 
        {
            "buffer" : 0, 
            "byteLength" : 1896, 
            "byteOffset" : 57156, 
            "target" : 34962
        }
    ], 
    "buffers" : [
        {
            "byteLength" : 59052, 
            "uri" : "TreeWinter.bin"
        }
    ], 
    "materials" : [
        {
            "name" : "Autumn .001", 
            "pbrMetallicRoughness" : {
                "baseColorFactor" : [
                    0.05040802434694802, 
                    0.020992976739897973, 
                    0.023645475859127574, 
                    1.0
                ], 
                "metallicFactor" : 0.0
            }
        }, 
        {
            "name" : "Autumn ", 
            "pbrMetallicRoughness" : {
                "baseColorFactor" : [
                    0.6084196658196994, 
                    0.12234094325216027, 
                    0.08561848529604799, 
                    1.0
                ], 
                "metallicFactor" : 0.0
            }
        }, 
        {
            "name" : "Spring", 
            "pbrMetallicRoughness" : {
                "baseColorFactor" : [
                    0.14758001785844588, 
                    0.08561848529604799, 
                    0.11530280285034777, 
                    1.0
                ], 
                "metallicFactor" : 0.0
            }
        }, 
        {
            "name" : "Spring.001", 
            "pbrMetallicRoughness" : {
                "baseColorFactor" : [
                    0.09563077234671669, 
                    0.2930021091252879, 
                    0.21308451016373198, 
                    1.0
                ], 
                "metallicFactor" : 0.0
            }
        }, 
        {
            "name" : "Summer", 
            "pbrMetallicRoughness" : {
                "baseColorFactor" : [
                    0.7440887562049738, 
                    0.16978463187492832, 
                    0.07092447386569489, 
                    1.0
                ], 
                "metallicFactor" : 0.0
            }
        }, 
        {
            "name" : "Summer.001", 
            "pbrMetallicRoughness" : {
                "baseColorFactor" : [
                    0.31325798501458735, 
                    0.43657961542277945, 
                    0.09771104004548548, 
                    1.0
                ], 
                "metallicFactor" : 0.0
            }
        }, 
        {
            "name" : "Winter", 
            "pbrMetallicRoughness" : {
                "baseColorFactor" : [
                    0.0875693632300103, 
                    0.13715291227628157, 
                    0.16690951834484213, 
                    1.0
                ], 
                "metallicFactor" : 0.0
            }
        }, 
        {
            "name" : "Winter.001", 
            "pbrMetallicRoughness" : {
                "baseColorFactor" : [
                    0.7787564393692676, 
                    0.800000011920929, 
                    0.7858006594449378, 
                    1.0
                ], 
                "metallicFactor" : 0.0
            }
        }
    ], 
    "meshes" : [
        {
            "name" : "Cube.001", 
            "primitives" : [
                {
                    "attributes" : {
                        "NORMAL" : 2, 
                        "POSITION" : 1
                    }, 
                    "indices" : 0, 
                    "material" : 6
                }
            ]
        }, 
        {
            "name" : "Circle", 
            "primitives" : [
                {
                    "attributes" : {
                        "NORMAL" : 5, 
                        "POSITION" : 4
                    }, 
                    "indices" : 3, 
                    "material" : 7
                }
            ]
        }
    ], 
    "nodes" : [
        {
            "mesh" : 1, 
            "name" : "Circle"
        }, 
        {
            "mesh" : 0, 
            "name" : "Tree"
        }
    ], 
    "scene" : 0, 
    "scenes" : [
        {
            "name" : "Scene", 
            "nodes" : [
                0, 
                1
            ]
        }
    ]
}
